<svg xmlns="http://www.w3.org/2000/svg" viewBox="0 0 1024 1024">
  <defs>
    <radialGradient id="bgGlow" cx="34%" cy="22%" r="78%">
      <stop offset="0%" stop-color="#303746"/>
      <stop offset="48%" stop-color="#121722"/>
      <stop offset="100%" stop-color="#07090d"/>
    </radialGradient>
    <linearGradient id="gold" x1="208" y1="128" x2="828" y2="896" gradientUnits="userSpaceOnUse">
      <stop offset="0%" stop-color="#fff1b8"/>
      <stop offset="34%" stop-color="#d9b861"/>
      <stop offset="68%" stop-color="#9c7130"/>
      <stop offset="100%" stop-color="#f1d58c"/>
    </linearGradient>
    <linearGradient id="goldSoft" x1="230" y1="212" x2="804" y2="812" gradientUnits="userSpaceOnUse">
      <stop offset="0%" stop-color="#ffe9a6"/>
      <stop offset="100%" stop-color="#b8873d"/>
    </linearGradient>
    <filter id="softShadow" x="-20%" y="-20%" width="140%" height="140%">
      <feDropShadow dx="0" dy="26" stdDeviation="32" flood-color="#000000" flood-opacity="0.5"/>
    </filter>
  </defs>

  <rect width="1024" height="1024" rx="228" fill="url(#bgGlow)"/>
  <path d="M209 169h606c25 0 40 27 27 49L539 838c-12 23-44 23-56 0L180 218c-12-22 4-49 29-49z" fill="#0e121a" opacity="0.88" filter="url(#softShadow)"/>
  <path d="M236 198h552L512 760 236 198z" fill="none" stroke="url(#gold)" stroke-width="42" stroke-linejoin="round"/>
  <path d="M512 228v528" stroke="url(#goldSoft)" stroke-width="34" stroke-linecap="round"/>
  <path d="M314 358h396" stroke="url(#goldSoft)" stroke-width="34" stroke-linecap="round"/>
  <path d="M382 506h260" stroke="url(#goldSoft)" stroke-width="34" stroke-linecap="round"/>
  <circle cx="512" cy="808" r="58" fill="url(#gold)" filter="url(#softShadow)"/>
  <circle cx="512" cy="808" r="24" fill="#121722"/>
  <path d="M318 253c94-48 292-54 388 0" fill="none" stroke="#fff4c7" stroke-width="16" stroke-linecap="round" opacity="0.42"/>
</svg>
